<svg width="170" height="32" viewBox="0 0 170 32" fill="none" xmlns="http://www.w3.org/2000/svg">
<g clip-path="url(#clip0_588_256)">
<path d="M15.5991 31.364C24.0844 31.364 30.9627 24.4857 30.9627 16.0004V5.24581C30.9627 4.0234 30.4771 2.85106 29.6128 1.98669C28.7484 1.12232 27.5761 0.636719 26.3537 0.636719L16.3673 0.636719V7.37675C16.3673 8.91465 16.461 10.5079 17.2676 11.8168C17.845 12.7549 18.6175 13.5579 19.5326 14.1712C20.4477 14.7844 21.4839 15.1937 22.5711 15.3712L22.8653 15.4188C22.9866 15.4603 23.0919 15.5387 23.1665 15.6429C23.241 15.7472 23.2811 15.8722 23.2811 16.0004C23.2811 16.1285 23.241 16.2535 23.1665 16.3578C23.0919 16.4621 22.9866 16.5404 22.8653 16.5819L22.5711 16.6295C20.9827 16.889 19.5158 17.6409 18.3777 18.779C17.2396 19.9171 16.4877 21.3839 16.2282 22.9724L16.1806 23.2666C16.1392 23.3879 16.0608 23.4932 15.9565 23.5677C15.8523 23.6423 15.7273 23.6824 15.5991 23.6824C15.4709 23.6824 15.3459 23.6423 15.2417 23.5677C15.1374 23.4932 15.0591 23.3879 15.0176 23.2666L14.97 22.9724C14.7924 21.8852 14.3831 20.8489 13.7698 19.9339C13.1566 19.0188 12.3537 18.2463 11.4156 17.6688C10.1066 16.8623 8.5134 16.7685 6.9755 16.7685H0.253906C0.655665 24.8967 7.37188 31.364 15.5991 31.364Z" fill="#181818"/>
<path d="M0.235352 15.2322H6.97538C8.51328 15.2322 10.1065 15.1385 11.4155 14.3319C12.4387 13.7014 13.3 12.8401 13.9305 11.8168C14.7371 10.5079 14.8308 8.91465 14.8308 7.37675V0.636719H4.84444C3.62204 0.636719 2.4497 1.12232 1.58532 1.98669C0.720951 2.85106 0.235352 4.0234 0.235352 5.24581L0.235352 15.2322ZM35.9212 2.17308C35.9212 2.58055 35.7594 2.97133 35.4712 3.25946C35.1831 3.54758 34.7923 3.70945 34.3849 3.70945C33.9774 3.70945 33.5866 3.54758 33.2985 3.25946C33.0104 2.97133 32.8485 2.58055 32.8485 2.17308C32.8485 1.76561 33.0104 1.37483 33.2985 1.08671C33.5866 0.798585 33.9774 0.636719 34.3849 0.636719C34.7923 0.636719 35.1831 0.798585 35.4712 1.08671C35.7594 1.37483 35.9212 1.76561 35.9212 2.17308ZM162.868 9.93479C167.163 9.93479 169.235 12.9345 169.235 16.409V22.9347H164.741V17.1834C164.741 15.6086 164.166 14.3088 162.518 14.3088C160.871 14.3088 160.321 15.6086 160.321 17.1834V22.934H155.827V17.1834C155.827 15.6086 155.277 14.3088 153.629 14.3088C151.981 14.3088 151.407 15.6086 151.407 17.1834V22.934H146.913V16.4083C146.913 12.9338 148.985 9.93402 153.279 9.93402C155.627 9.93402 157.325 10.8589 158.099 12.3838C158.923 10.8589 160.721 9.93326 162.868 9.93326V9.93479ZM138.836 18.9348C140.284 18.9348 140.909 17.6097 140.909 16.0342V10.4341H145.403V16.5842C145.403 20.2592 143.255 23.3096 138.836 23.3096C134.416 23.3096 132.269 20.2599 132.269 16.5842V10.4341H136.764V16.0342C136.764 17.6089 137.387 18.9348 138.836 18.9348ZM125.66 23.3342C122.839 23.3342 121.016 22.3594 119.942 20.4597L123.188 18.6345C123.638 19.4341 124.311 19.8343 125.435 19.8343C126.359 19.8343 126.783 19.5094 126.783 19.1092C126.783 17.5843 120.192 19.1345 120.192 14.285C120.192 11.9344 122.189 10.0347 125.585 10.0347C128.556 10.0347 130.179 11.4842 130.904 12.8846L127.658 14.7344C127.383 13.9846 126.534 13.5345 125.685 13.5345C125.036 13.5345 124.686 13.8095 124.686 14.1844C124.686 15.7346 131.278 14.3096 131.278 19.0093C131.278 21.6342 128.706 23.3342 125.66 23.3342ZM109.957 28.6846H105.462V16.6595C105.462 12.8339 108.334 10.0592 112.329 10.0592C116.225 10.0592 119.196 13.0344 119.196 16.6595C119.196 20.6594 116.549 23.3096 112.579 23.3096C111.655 23.3096 110.731 23.0346 109.957 22.609V28.6846ZM112.329 19.0846C113.753 19.0846 114.701 17.9846 114.701 16.684C114.701 15.3597 113.753 14.2842 112.329 14.2842C110.906 14.2842 109.957 15.3597 109.957 16.6848C109.957 17.9846 110.906 19.0846 112.329 19.0846ZM100.96 9.10976C99.4867 9.10976 98.2638 7.88451 98.2638 6.40961C98.2638 4.9347 99.4867 3.70945 100.96 3.70945C102.433 3.70945 103.657 4.9347 103.657 6.40961C103.657 7.88451 102.433 9.10976 100.96 9.10976ZM98.7132 10.4341H103.208V22.9347H98.7132V10.4341ZM90.0896 23.3096C86.1941 23.3096 83.2228 20.3099 83.2228 16.6595C83.2228 13.0344 86.1941 10.0347 90.0896 10.0347C93.985 10.0347 96.9564 13.0344 96.9564 16.6595C96.9564 20.3099 93.985 23.3096 90.0896 23.3096ZM90.0896 19.0846C91.513 19.0846 92.4617 17.9846 92.4617 16.684C92.4617 15.3597 91.513 14.2597 90.0896 14.2597C88.6661 14.2597 87.7174 15.3597 87.7174 16.684C87.7174 17.9846 88.6661 19.0846 90.0896 19.0846ZM74.7359 29.0594C71.6402 29.0594 69.3925 27.6844 68.244 25.2339L71.9643 23.2343C72.3638 24.0847 73.1128 24.9597 74.6606 24.9597C76.2846 24.9597 77.3577 23.9341 77.4829 22.1343C76.8838 22.6597 75.9343 23.0592 74.5116 23.0592C71.0402 23.0592 68.2433 20.3844 68.2433 16.6341C68.2433 13.0098 71.2153 10.0592 75.1108 10.0592C79.1061 10.0592 81.9776 12.8347 81.9776 16.6595V21.6096C81.9776 26.1096 78.8557 29.0594 74.7359 29.0594ZM75.0355 18.8349C76.3837 18.8349 77.4077 17.9093 77.4077 16.5342C77.4077 15.1845 76.3844 14.2842 75.0355 14.2842C73.7119 14.2842 72.6634 15.1845 72.6634 16.535C72.6634 17.9101 73.7119 18.8342 75.0355 18.8342V18.8349ZM60.6198 23.3096C56.7244 23.3096 53.7523 20.3099 53.7523 16.6595C53.7523 13.0344 56.7244 10.0347 60.6198 10.0347C64.5145 10.0347 67.4866 13.0344 67.4866 16.6595C67.4866 20.3099 64.5153 23.3096 60.6198 23.3096ZM60.6198 19.0846C62.0433 19.0846 62.992 17.9846 62.992 16.684C62.992 15.3597 62.0433 14.2597 60.6198 14.2597C59.1964 14.2597 58.2477 15.3597 58.2477 16.684C58.2477 17.9846 59.1964 19.0846 60.6198 19.0846ZM45.5681 6.06008V18.6844H53.0094V22.9347H44.9435C42.0974 22.9347 40.949 21.4345 40.949 19.0593V6.06008H45.5681Z" fill="#181818"/>
</g>
<defs>
<clipPath id="clip0_588_256">
<rect width="169" height="30.7273" fill="white" transform="translate(0.235352 0.636719)"/>
</clipPath>
</defs>
</svg>
