<svg width="170" height="32" viewBox="0 0 170 32" fill="none" xmlns="http://www.w3.org/2000/svg">
<g clip-path="url(#clip0_588_259)">
<path d="M95.0884 23.3831H98.7033V9.7479H95.0884V23.3831ZM95.0884 7.62158H98.7033V4.37891H95.0884V7.62158Z" fill="#181818"/>
<path d="M101.033 27.8476H104.648V21.8407H104.701C105.471 23.0102 106.721 23.781 108.634 23.781C112.143 23.781 114.535 20.9902 114.535 16.578C114.535 12.3253 112.223 9.375 108.608 9.375C106.747 9.375 105.471 10.2522 104.595 11.4482H104.515V9.74711H101.033V27.8476ZM107.864 20.7775C105.711 20.7775 104.568 19.1562 104.568 16.6843C104.568 14.239 105.471 12.2988 107.731 12.2988C109.964 12.2988 110.867 14.1061 110.867 16.6843C110.867 19.2625 109.698 20.7775 107.864 20.7775Z" fill="#181818"/>
<path d="M121.746 23.781C125.148 23.781 127.487 22.1331 127.487 19.3954C127.487 16.2059 124.962 15.568 122.676 15.0896C120.736 14.6909 118.929 14.5845 118.929 13.4151C118.929 12.4317 119.859 11.9001 121.267 11.9001C122.809 11.9001 123.74 12.4317 123.899 13.8935H127.168C126.903 11.1559 124.909 9.375 121.321 9.375C118.211 9.375 115.766 10.7837 115.766 13.734C115.766 16.7109 118.158 17.3754 120.603 17.8538C122.464 18.2259 124.191 18.3588 124.191 19.6612C124.191 20.6181 123.288 21.2294 121.693 21.2294C120.071 21.2294 118.955 20.5383 118.716 18.9702H115.367C115.58 21.8673 117.786 23.781 121.746 23.781Z" fill="#181818"/>
<path d="M141.211 23.3832V9.74805H137.596V17.6155C137.596 19.4229 136.56 20.6987 134.859 20.6987C133.317 20.6987 132.6 19.8216 132.6 18.2269V9.74805H129.011V18.8382C129.011 21.815 130.712 23.7554 133.742 23.7554C135.656 23.7554 136.719 23.0377 137.65 21.7885H137.729V23.3832H141.211Z" fill="#181818"/>
<path d="M143.549 23.3823H147.164V15.4617C147.164 13.6543 148.147 12.4848 149.61 12.4848C150.938 12.4848 151.709 13.2822 151.709 14.8238V23.3823H155.324V15.4617C155.324 13.6543 156.254 12.4848 157.769 12.4848C159.098 12.4848 159.869 13.2822 159.869 14.8238V23.3823H163.484V14.2124C163.484 11.2356 161.862 9.375 158.991 9.375C157.264 9.375 155.828 10.2787 154.898 11.7671H154.845C154.181 10.3319 152.799 9.375 151.071 9.375C149.184 9.375 147.855 10.3319 147.111 11.5811H147.031V9.74711H143.549V23.3823Z" fill="#181818"/>
<path d="M0.874512 23.3831H4.48929V4.37891H0.874512V23.3831Z" fill="#181818"/>
<path d="M13.3279 23.781C17.554 23.781 20.4511 20.6447 20.4511 16.578C20.4511 12.5113 17.554 9.375 13.3279 9.375C9.10171 9.375 6.20459 12.5113 6.20459 16.578C6.20459 20.6447 9.10171 23.781 13.3279 23.781ZM13.3279 21.0168C11.0952 21.0168 9.87253 19.2359 9.87253 16.578C9.87253 13.9201 11.0952 12.1127 13.3279 12.1127C15.5339 12.1127 16.7832 13.9201 16.7832 16.578C16.7832 19.2359 15.5339 21.0168 13.3279 21.0168Z" fill="#181818"/>
<path d="M28.1382 28.0337C30.1582 28.0337 31.9125 27.5553 33.0553 26.4921C34.0654 25.5618 34.6767 24.2594 34.6767 22.3458V9.74711H31.1948V11.1824H31.1417C30.3177 10.0395 29.0685 9.375 27.3674 9.375C23.9121 9.375 21.4668 11.9798 21.4668 16.0464C21.4668 20.1662 24.4437 22.5583 27.4737 22.5583C29.2013 22.5583 30.238 21.8673 31.0353 20.9636H31.1151V22.452C31.1151 24.3126 30.1316 25.296 28.085 25.296C26.4105 25.296 25.6397 24.6315 25.3474 23.781H21.7591C22.1312 26.439 24.4171 28.0337 28.1382 28.0337ZM28.085 19.6612C26.2245 19.6612 25.0018 18.3056 25.0018 15.9933C25.0018 13.7074 26.2245 12.2722 28.0584 12.2722C30.238 12.2722 31.3011 13.9733 31.3011 15.9667C31.3011 17.9867 30.3708 19.6612 28.085 19.6612Z" fill="#181818"/>
<path d="M43.4631 23.781C47.6892 23.781 50.5864 20.6447 50.5864 16.578C50.5864 12.5113 47.6892 9.375 43.4631 9.375C39.237 9.375 36.3398 12.5113 36.3398 16.578C36.3398 20.6447 39.237 23.781 43.4631 23.781ZM43.4631 21.0168C41.2305 21.0168 40.0078 19.2359 40.0078 16.578C40.0078 13.9201 41.2305 12.1127 43.4631 12.1127C45.6692 12.1127 46.9185 13.9201 46.9185 16.578C46.9185 19.2359 45.6692 21.0168 43.4631 21.0168Z" fill="#181818"/>
<path d="M164.797 7.50884C164.797 6.8972 165.293 6.40137 165.905 6.40137H168.12C168.731 6.40137 169.227 6.8972 169.227 7.50884C169.227 8.12048 168.731 8.61631 168.12 8.61631H165.905C165.293 8.61631 164.797 8.12048 164.797 7.50884Z" fill="#181818"/>
<path fill-rule="evenodd" clip-rule="evenodd" d="M72.5085 0.495117C81.0711 0.495117 88.0133 7.43676 88.0133 15.9997C88.0133 24.5627 81.0711 31.5043 72.5085 31.5043C63.9455 31.5043 57.0039 24.5627 57.0039 15.9997C57.0039 7.43676 63.9455 0.495117 72.5085 0.495117ZM71.9481 1.65532C70.1792 1.90424 68.495 3.32554 67.1876 5.70264C66.8083 6.39216 66.4661 7.15392 66.168 7.97642C67.9457 7.52968 69.8986 7.2663 71.9481 7.22556V1.65532ZM64.8575 8.34881C65.2284 7.18502 65.682 6.11429 66.2055 5.1625C66.8536 3.98411 67.6228 2.96651 68.4894 2.18494C63.7769 3.55358 60.0623 7.26813 58.6937 11.9807C59.4753 11.1141 60.4928 10.3449 61.6713 9.69678C62.6231 9.17327 63.6937 8.7196 64.8575 8.34881ZM64.4852 9.65918C64.0384 11.4369 63.7751 13.3898 63.7343 15.4393H58.164C58.413 13.6704 59.8343 11.9862 62.2114 10.6788C62.9009 10.2996 63.6627 9.95741 64.4852 9.65918ZM64.8554 15.4393C64.9016 13.2027 65.2237 11.1029 65.7564 9.24761C67.6117 8.71487 69.7115 8.39284 71.9481 8.34656V10.7675C71.1137 12.9036 69.4119 14.6052 67.2758 15.4393H64.8554ZM63.7343 16.5601H58.164C58.413 18.329 59.8343 20.0131 62.2114 21.3206C62.9009 21.6998 63.6627 22.042 64.4852 22.3402C64.0384 20.5625 63.7751 18.6096 63.7343 16.5601ZM65.7564 22.7518C65.2237 20.8965 64.9016 18.7967 64.8554 16.5601H67.2758C69.4119 17.3942 71.1137 19.0958 71.9481 21.2319V23.6528C69.7115 23.6066 67.6117 23.2845 65.7564 22.7518ZM64.8575 23.6506C63.6937 23.2798 62.6231 22.8261 61.6713 22.3026C60.4928 21.6545 59.4753 20.8854 58.6937 20.0187C60.0623 24.7313 63.7769 28.4459 68.4894 29.8144C67.6228 29.0329 66.8536 28.0153 66.2055 26.8369C65.682 25.8851 65.2284 24.8144 64.8575 23.6506ZM71.9481 30.3441C70.1792 30.0952 68.495 28.6739 67.1876 26.2968C66.8083 25.6073 66.4661 24.8455 66.168 24.023C67.9457 24.4697 69.8986 24.7331 71.9481 24.7738V30.3441ZM76.5275 29.8144C77.3941 29.0329 78.1632 28.0153 78.8113 26.8369C79.3346 25.8851 79.7889 24.8144 80.1595 23.6506C81.3231 23.2798 82.3937 22.8261 83.3457 22.3026C84.524 21.6545 85.5419 20.8854 86.3233 20.0187C84.9543 24.7313 81.2401 28.4459 76.5275 29.8144ZM78.8493 24.023C78.5509 24.8455 78.2082 25.6073 77.8291 26.2968C76.5219 28.6739 74.8377 30.0952 73.0688 30.3441V24.7738C75.1183 24.7331 77.0712 24.4697 78.8493 24.023ZM80.5316 22.3402C81.3541 22.042 82.1161 21.6998 82.8053 21.3206C85.183 20.0132 86.6039 18.329 86.8528 16.5601H81.2828C81.2417 18.6096 80.9781 20.5625 80.5316 22.3402ZM80.1618 16.5601C80.1153 18.7967 79.7936 20.8965 79.2602 22.7518C77.4052 23.2845 75.3054 23.6066 73.0688 23.6528V21.2337C73.903 19.0968 75.6051 17.3944 77.7418 16.5601H80.1618ZM81.2828 15.4393H86.8528C86.6039 13.6704 85.183 11.9862 82.8053 10.6788C82.1161 10.2996 81.3541 9.95741 80.5316 9.65918C80.9781 11.4369 81.2417 13.3898 81.2828 15.4393ZM79.2602 9.24761C79.7936 11.1029 80.1153 13.2027 80.1618 15.4393H77.7419C75.6051 14.605 73.903 12.9026 73.0688 10.7657V8.34656C75.3054 8.39284 77.4052 8.71487 79.2602 9.24761ZM80.1595 8.34881C81.3231 8.7196 82.3937 9.17327 83.3457 9.69678C84.524 10.3449 85.5419 11.1141 86.3233 11.9807C84.9543 7.26813 81.2401 3.55358 76.5275 2.18494C77.3941 2.96651 78.1632 3.98411 78.8113 5.1625C79.3346 6.11429 79.7889 7.18502 80.1595 8.34881ZM73.0688 1.65532C74.8377 1.90424 76.5219 3.32554 77.8291 5.70264C78.2082 6.39216 78.5509 7.15392 78.8493 7.97642C77.0712 7.52968 75.1183 7.2663 73.0688 7.22556V1.65532Z" fill="#181818"/>
</g>
<defs>
<clipPath id="clip0_588_259">
<rect width="169" height="31.0092" fill="white" transform="translate(0.235352 0.495117)"/>
</clipPath>
</defs>
</svg>
