<svg width="169" height="36" viewBox="0 0 169 36" fill="none" xmlns="http://www.w3.org/2000/svg">
<path d="M27.6677 16.0453C27.2129 16.5029 26.8647 17.0551 26.6477 17.6625C26.4307 18.2701 26.3505 18.918 26.4125 19.5601L26.3909 19.5385C26.4547 20.2944 26.3527 21.0549 26.0922 21.7674C25.8317 22.4797 25.4189 23.1266 24.8826 23.663C24.3462 24.1993 23.6993 24.6122 22.9869 24.8726C22.2745 25.1331 21.5139 25.2351 20.7581 25.1713L20.7797 25.1929C19.8756 25.1088 18.9676 25.3055 18.1793 25.7563C17.3911 26.2071 16.7611 26.8901 16.3753 27.7121C15.9895 28.5341 15.8665 29.4549 16.0233 30.3494C16.1801 31.2438 16.6089 32.0681 17.2512 32.7098C17.8936 33.3516 18.7182 33.7796 19.6127 33.9355C20.5073 34.0915 21.4281 33.9677 22.2497 33.5811C23.0713 33.1945 23.7537 32.564 24.2038 31.7754C24.6539 30.9867 24.8499 30.0786 24.7649 29.1745L24.7877 29.1961C24.7239 28.4403 24.8257 27.6797 25.0863 26.9672C25.3468 26.2549 25.7597 25.608 26.296 25.0716C26.8324 24.5353 27.4793 24.1224 28.1916 23.862C28.9041 23.6015 29.6646 23.4995 30.4205 23.5633L30.3977 23.5417C31.1362 23.6081 31.8796 23.487 32.5589 23.1896C33.2381 22.8923 33.8314 22.4282 34.2835 21.8406C34.7357 21.2529 35.0323 20.5605 35.1456 19.8278C35.259 19.095 35.1856 18.3455 34.9321 17.6485C34.6787 16.9517 34.2534 16.3301 33.6958 15.8413C33.1381 15.3525 32.4661 15.0125 31.7421 14.8526C31.018 14.6928 30.2652 14.7182 29.5536 14.9267C28.842 15.1352 28.1946 15.5199 27.6713 16.0453H27.6677Z" fill="#181818"/>
<path d="M18.815 22.3629L18.7922 22.3413C19.4346 22.406 20.0833 22.3271 20.6916 22.1104C21.2998 21.8937 21.8522 21.5446 22.309 21.0883C22.7656 20.6319 23.1152 20.0797 23.3323 19.4716C23.5495 18.8636 23.6288 18.215 23.5646 17.5725L23.5874 17.5941C23.5236 16.8382 23.6256 16.0777 23.886 15.3652C24.1465 14.6529 24.5594 14.006 25.0957 13.4696C25.6321 12.9333 26.279 12.5204 26.9914 12.26C27.7038 11.9994 28.4644 11.8975 29.2202 11.9613L29.1974 11.9397C30.1016 12.0247 31.0099 11.8285 31.7986 11.3782C32.5873 10.9279 33.2178 10.2453 33.6042 9.42342C33.9906 8.60159 34.1141 7.68055 33.9578 6.78594C33.8016 5.89133 33.3732 5.06671 32.731 4.42455C32.0888 3.78239 31.2642 3.35394 30.3696 3.19768C29.475 3.0414 28.554 3.16489 27.7321 3.55132C26.9102 3.93773 26.2277 4.56827 25.7773 5.35692C25.327 6.14556 25.1309 7.05393 25.2158 7.9581L25.1942 7.9353C25.2582 8.69117 25.1564 9.4519 24.896 10.1644C24.6356 10.8768 24.2227 11.5239 23.6864 12.0603C23.15 12.5966 22.503 13.0095 21.7906 13.2699C21.078 13.5303 20.3173 13.6321 19.5614 13.5681L19.583 13.5909C18.9407 13.5262 18.2918 13.6051 17.6837 13.8218C17.0755 14.0384 16.523 14.3876 16.0663 14.8439C15.6096 15.3003 15.26 15.8525 15.0428 16.4606C14.8258 17.0686 14.7464 17.7172 14.8106 18.3597L14.789 18.3381C14.8526 19.0939 14.7505 19.8544 14.49 20.5667C14.2294 21.2789 13.8166 21.9259 13.2803 22.4621C12.7439 22.9984 12.0971 23.4112 11.3848 23.6719C10.6726 23.9324 9.91201 24.0345 9.15624 23.9709L9.17784 23.9925C8.27366 23.9075 7.3653 24.1036 6.57665 24.554C5.78801 25.0043 5.15747 25.6869 4.77105 26.5088C4.38463 27.3307 4.26113 28.2517 4.4174 29.1463C4.57368 30.0409 5.00213 30.8655 5.64428 31.5076C6.28645 32.1499 7.11107 32.5783 8.00568 32.7345C8.90029 32.8907 9.82133 32.7673 10.6432 32.3809C11.465 31.9945 12.1476 31.364 12.598 30.5753C13.0483 29.7866 13.2444 28.8783 13.1594 27.9741L13.1822 27.9957C13.1184 27.2398 13.2204 26.4793 13.4809 25.7668C13.7413 25.0545 14.1542 24.4076 14.6905 23.8712C15.2269 23.3349 15.8738 22.922 16.5862 22.6616C17.2986 22.4011 18.0592 22.2991 18.815 22.3629Z" fill="#181818"/>
<path d="M10.7724 19.9551C11.2272 19.4977 11.5755 18.9454 11.7922 18.3379C12.009 17.7303 12.089 17.0823 12.0264 16.4403L12.0492 16.4619C11.9854 15.7059 12.0873 14.945 12.348 14.2324C12.6086 13.5199 13.0217 12.8728 13.5583 12.3364C14.095 11.8001 14.7421 11.3873 15.4548 11.1269C16.1675 10.8666 16.9284 10.7649 17.6844 10.8291L17.6616 10.8075C18.5655 10.8922 19.4735 10.696 20.2618 10.2457C21.0501 9.79545 21.6802 9.11297 22.0665 8.29139C22.4526 7.4698 22.576 6.5491 22.4197 5.65483C22.2635 4.76055 21.8351 3.93625 21.1932 3.29432C20.5513 2.65239 19.7269 2.22409 18.8327 2.06782C17.9385 1.91155 17.0177 2.03493 16.1962 2.42111C15.3745 2.8073 14.6921 3.4375 14.2419 4.22578C13.7915 5.01406 13.5953 5.92205 13.68 6.82592L13.6584 6.80432C13.7223 7.56014 13.6203 8.32078 13.3597 9.03315C13.0992 9.74552 12.6864 10.3925 12.1501 10.9288C11.6137 11.4652 10.9668 11.878 10.2544 12.1384C9.54207 12.399 8.78143 12.501 8.02561 12.4371L8.04721 12.4587C7.3087 12.3925 6.56541 12.5138 5.88623 12.8113C5.20705 13.1088 4.61395 13.5729 4.1619 14.1607C3.70985 14.7483 3.41347 15.4407 3.30022 16.1734C3.18697 16.9063 3.26052 17.6558 3.51405 18.3525C3.76757 19.0494 4.19289 19.6708 4.75056 20.1595C5.30824 20.6482 5.98024 20.9882 6.70429 21.148C7.42834 21.3078 8.18101 21.2822 8.89258 21.0738C9.60413 20.8652 10.2515 20.4805 10.7748 19.9551H10.7724Z" fill="#181818"/>
<path d="M47.9448 7.98633H51.5088V25.3299H47.9448V7.98633Z" fill="#181818"/>
<path d="M53.5275 19.3909C53.5226 18.1446 53.8876 16.9247 54.5764 15.886C55.2652 14.8472 56.2468 14.0363 57.3969 13.5559C58.547 13.0754 59.8137 12.9472 61.0368 13.1873C62.2598 13.4274 63.3841 14.025 64.2672 14.9046C65.1502 15.7841 65.7524 16.906 65.9974 18.128C66.2425 19.3501 66.1192 20.6174 65.6434 21.7694C65.1676 22.9213 64.3606 23.9063 63.3247 24.5992C62.2886 25.2922 61.0704 25.6621 59.8239 25.6621C58.9966 25.6716 58.1757 25.516 57.4092 25.2044C56.6426 24.8929 55.9459 24.4318 55.3597 23.848C54.7734 23.264 54.3094 22.5691 53.9949 21.8039C53.6803 21.0386 53.5214 20.2183 53.5275 19.3909ZM62.5563 19.3909C62.5414 18.8537 62.3685 18.3328 62.0593 17.8932C61.7499 17.4538 61.3179 17.1151 60.8173 16.9199C60.3165 16.7245 59.7694 16.6811 59.2442 16.7951C58.719 16.9091 58.239 17.1752 57.8642 17.5606C57.4896 17.9458 57.2366 18.433 57.1374 18.9612C57.038 19.4893 57.0964 20.0351 57.3056 20.5302C57.5148 21.0253 57.8652 21.4477 58.313 21.7447C58.761 22.0417 59.2866 22.2001 59.8239 22.2001C60.192 22.21 60.5581 22.1434 60.8992 22.0046C61.2403 21.8659 61.5489 21.6581 61.8056 21.3942C62.0623 21.1302 62.2616 20.8159 62.3907 20.4712C62.52 20.1264 62.5764 19.7586 62.5563 19.3909Z" fill="#181818"/>
<path d="M80.3243 13.451V24.731C80.3243 28.7222 77.2115 30.4094 74.0519 30.4094C72.9395 30.4926 71.8256 30.2679 70.8323 29.7599C69.8392 29.2518 69.0051 28.4801 68.4215 27.5294L71.4623 25.7714C71.7076 26.267 72.0985 26.6758 72.5824 26.9433C73.0665 27.2106 73.6207 27.3239 74.1707 27.2678C74.5223 27.3165 74.8804 27.2855 75.2185 27.1772C75.5564 27.0688 75.8657 26.8858 76.1235 26.6418C76.3813 26.3978 76.5808 26.099 76.7075 25.7673C76.8341 25.4357 76.8845 25.0799 76.8551 24.7262V23.6402C76.4378 24.1508 75.9067 24.5565 75.3041 24.8247C74.7016 25.0929 74.0447 25.2161 73.3859 25.1846C71.8185 25.1351 70.3318 24.4778 69.2405 23.3514C68.1493 22.2252 67.5391 20.7185 67.5391 19.1504C67.5391 17.5822 68.1493 16.0755 69.2405 14.9493C70.3318 13.823 71.8185 13.1656 73.3859 13.1162C74.0447 13.0846 74.7016 13.2078 75.3041 13.476C75.9067 13.7442 76.4378 14.15 76.8551 14.6606V13.4486L80.3243 13.451ZM76.8563 19.1522C76.8803 18.5778 76.7318 18.0094 76.43 17.5202C76.1282 17.0308 75.6868 16.6431 75.1628 16.4068C74.6387 16.1704 74.056 16.0964 73.4895 16.194C72.923 16.2917 72.3987 16.5567 71.984 16.955C71.5694 17.3531 71.2834 17.8662 71.1628 18.4283C71.0423 18.9904 71.0927 19.5758 71.3078 20.1089C71.5227 20.6421 71.8923 21.0988 72.3689 21.4202C72.8456 21.7415 73.4075 21.9129 73.9823 21.9122C74.3569 21.9383 74.7326 21.8858 75.0855 21.7578C75.4384 21.6299 75.7606 21.4294 76.0313 21.1695C76.3021 20.9094 76.5154 20.5956 76.6575 20.2481C76.7996 19.9007 76.8674 19.5274 76.8563 19.1522Z" fill="#181818"/>
<path d="M82.3429 19.3909C82.338 18.1446 82.7029 16.9247 83.3919 15.886C84.0807 14.8472 85.0623 14.0363 86.2123 13.5559C87.3624 13.0754 88.6291 12.9472 89.8522 13.1873C91.0752 13.4274 92.1995 14.025 93.0826 14.9046C93.9657 15.7841 94.5678 16.906 94.8129 18.128C95.0579 19.3501 94.9347 20.6174 94.4589 21.7694C93.9831 22.9213 93.1761 23.9063 92.1401 24.5992C91.104 25.2922 89.8858 25.6621 88.6393 25.6621C87.8121 25.6716 86.991 25.516 86.2246 25.2044C85.458 24.8929 84.7613 24.4318 84.1751 23.848C83.5888 23.264 83.1249 22.5691 82.8103 21.8039C82.4957 21.0386 82.3368 20.2183 82.3429 19.3909ZM91.3717 19.3909C91.3569 18.8537 91.1839 18.3328 90.8747 17.8932C90.5653 17.4538 90.1333 17.1151 89.6327 16.9199C89.1319 16.7245 88.5847 16.6811 88.0596 16.7951C87.5344 16.9091 87.0544 17.1752 86.6796 17.5606C86.305 17.9458 86.052 18.433 85.9527 18.9612C85.8533 19.4893 85.9119 20.0351 86.121 20.5302C86.3302 21.0253 86.6806 21.4477 87.1284 21.7447C87.5764 22.0417 88.1019 22.2001 88.6393 22.2001C89.0074 22.21 89.3735 22.1434 89.7145 22.0046C90.0557 21.8659 90.3643 21.6581 90.621 21.3942C90.8777 21.1302 91.077 20.8159 91.2061 20.4712C91.3354 20.1264 91.3918 19.7586 91.3717 19.3909Z" fill="#181818"/>
<path d="M96.5981 10.2673C96.5981 9.84437 96.7235 9.43093 96.9585 9.07928C97.1935 8.72762 97.5275 8.45353 97.9183 8.29169C98.309 8.12983 98.7389 8.08748 99.1538 8.17C99.5685 8.25251 99.9496 8.45617 100.249 8.75524C100.548 9.05429 100.751 9.43531 100.834 9.85013C100.916 10.2649 100.874 10.6949 100.712 11.0856C100.55 11.4764 100.276 11.8104 99.9245 12.0453C99.5729 12.2803 99.1595 12.4057 98.7365 12.4057C98.1712 12.4001 97.6305 12.173 97.2307 11.7732C96.8309 11.3733 96.6038 10.8327 96.5981 10.2673ZM96.9581 13.4509H100.523V25.3309H96.9533L96.9581 13.4509Z" fill="#181818"/>
<path d="M115.912 19.3903C115.953 20.1755 115.838 20.961 115.575 21.7018C115.311 22.4425 114.904 23.1239 114.376 23.7067C113.849 24.2895 113.211 24.7623 112.5 25.0978C111.789 25.4332 111.019 25.6248 110.233 25.6615C109.573 25.6975 108.913 25.5862 108.3 25.3355C107.688 25.0847 107.14 24.7009 106.694 24.2119V30.0811H103.13V13.4503H106.694V14.5663C107.14 14.0777 107.689 13.6942 108.301 13.4437C108.913 13.1932 109.573 13.0819 110.233 13.1179C111.019 13.1545 111.789 13.3461 112.5 13.6816C113.212 14.0171 113.849 14.4899 114.377 15.0729C114.905 15.6558 115.312 16.3374 115.576 17.0784C115.839 17.8193 115.953 18.6051 115.912 19.3903ZM112.348 19.3903C112.334 18.8344 112.156 18.2949 111.837 17.8392C111.518 17.3837 111.072 17.0323 110.554 16.8293C110.036 16.6261 109.47 16.5802 108.926 16.6973C108.383 16.8143 107.885 17.0891 107.497 17.4873C107.109 17.8855 106.847 18.3893 106.743 18.9359C106.64 19.4824 106.7 20.0471 106.916 20.5596C107.132 21.0721 107.495 21.5094 107.958 21.817C108.422 22.1244 108.965 22.2885 109.522 22.2883C109.903 22.3054 110.285 22.2414 110.64 22.1008C110.995 21.9603 111.317 21.7461 111.584 21.4725C111.851 21.1987 112.057 20.8719 112.188 20.5131C112.32 20.1543 112.374 19.7716 112.348 19.3903Z" fill="#181818"/>
<path d="M126.91 21.766C126.91 24.4984 124.535 25.6624 121.97 25.6624C120.933 25.7563 119.892 25.5371 118.981 25.033C118.071 24.529 117.332 23.7634 116.861 22.8352L119.949 21.0772C120.074 21.5062 120.342 21.8795 120.709 22.1345C121.076 22.3897 121.52 22.5112 121.965 22.4788C122.819 22.4788 123.248 22.2172 123.248 21.7432C123.248 20.4352 117.403 21.1252 117.403 17.0152C117.403 14.4244 119.589 13.1188 122.06 13.1188C122.989 13.0894 123.908 13.3097 124.723 13.7567C125.537 14.2039 126.218 14.8612 126.692 15.6604L123.651 17.2996C123.518 16.9885 123.296 16.7234 123.013 16.5375C122.729 16.3516 122.398 16.2532 122.06 16.2544C121.442 16.2544 121.061 16.4944 121.061 16.9192C121.066 18.274 126.91 17.3704 126.91 21.766Z" fill="#181818"/>
<path d="M139.929 13.4512V25.3312H136.365V24.214C135.953 24.7069 135.431 25.0954 134.841 25.3474C134.25 25.5994 133.61 25.7077 132.969 25.6636C130.569 25.6636 128.529 23.9536 128.529 20.7436V13.4512H132.093V20.2216C132.063 20.5045 132.095 20.7906 132.188 21.0598C132.279 21.3291 132.429 21.5751 132.626 21.7806C132.822 21.9862 133.061 22.1464 133.326 22.2502C133.59 22.354 133.875 22.3989 134.159 22.3816C135.466 22.3816 136.368 21.622 136.368 19.9348V13.4548L139.929 13.4512Z" fill="#181818"/>
<path d="M160.365 18.0361V25.3297H156.801V18.3445C156.801 17.1565 156.231 16.3969 155.091 16.3969C153.903 16.3969 153.237 17.2285 153.237 18.6301V25.3297H149.674V18.3445C149.674 17.1565 149.104 16.3969 147.963 16.3969C146.775 16.3969 146.11 17.2285 146.11 18.6301V25.3297H142.546V13.4497H146.11V14.5417C146.479 14.0572 146.964 13.673 147.52 13.4242C148.077 13.1754 148.686 13.0699 149.293 13.1173C149.903 13.0874 150.51 13.2162 151.056 13.4908C151.601 13.7654 152.065 14.1768 152.405 14.6845C152.8 14.1532 153.323 13.7308 153.925 13.4568C154.528 13.1827 155.19 13.0659 155.85 13.1173C158.578 13.1185 160.365 15.0661 160.365 18.0361Z" fill="#181818"/>
<path d="M163.379 13.3775C164.84 13.3775 166.024 12.1933 166.024 10.7327C166.024 9.272 164.84 8.08789 163.379 8.08789C161.919 8.08789 160.734 9.272 160.734 10.7327C160.734 12.1933 161.919 13.3775 163.379 13.3775Z" fill="#181818"/>
</svg>
