<svg width="13" height="10" viewBox="0 0 13 10" fill="none" xmlns="http://www.w3.org/2000/svg">
<g clip-path="url(#clip0_588_114)">
<path d="M10.1406 2.49805L9.21094 1.56836C9.00518 1.36442 8.7272 1.25 8.4375 1.25H4.00781C3.71875 1.25 3.43945 1.36523 3.23438 1.56836L2.30469 2.49805H0V7.49219H1.25C1.59375 7.49219 1.87109 7.21484 1.87305 6.87305H2.05078L3.70312 8.36523C4.30664 8.85547 5.14453 8.86719 5.76562 8.43945C6.00977 8.65039 6.27344 8.75 6.56836 8.75C6.92383 8.75 7.25781 8.60547 7.52148 8.28125C7.95312 8.45117 8.46289 8.33203 8.77148 7.95312L9.2832 7.32227C9.39258 7.1875 9.46094 7.0332 9.49609 6.87305H10.627C10.6289 7.21484 10.9082 7.49219 11.25 7.49219H12.5V2.49805H10.1406ZM0.9375 6.86719C0.765625 6.86719 0.625 6.72656 0.625 6.55469C0.625 6.38281 0.765625 6.24219 0.9375 6.24219C1.10938 6.24219 1.25 6.38281 1.25 6.55469C1.25 6.72852 1.10938 6.86719 0.9375 6.86719ZM8.55469 6.73242L8.04492 7.36133C7.99023 7.42773 7.89258 7.43945 7.82422 7.38477L7.35742 7.00586L6.77148 7.71875C6.6543 7.86133 6.47852 7.8125 6.41992 7.76562L5.70117 7.15039L5.39648 7.52539C5.125 7.85938 4.63086 7.91016 4.31641 7.6543L2.41602 5.93555H1.875V3.43359H2.69336L3.89844 2.23047C3.9375 2.21484 3.9707 2.20117 4.00977 2.18555H5.11719L4.36133 2.87891C3.78711 3.4043 3.75391 4.29102 4.27539 4.85742C4.56445 5.17383 5.4707 5.66211 6.25781 4.94336L6.41797 4.79688L8.53125 6.51172C8.59766 6.56641 8.60742 6.66602 8.55469 6.73242ZM10.625 5.93555H9.27344C9.22852 5.88086 9.17773 5.83008 9.12305 5.78516L7.11719 4.15625L7.36133 3.93359C7.48828 3.81641 7.49805 3.61914 7.38086 3.49219L7.16797 3.26367C7.05078 3.13672 6.85352 3.12891 6.72656 3.24414L5.64844 4.23242C5.46289 4.40234 5.14648 4.41602 4.97266 4.23242C4.79102 4.03906 4.80664 3.74219 4.99609 3.57031L6.27734 2.39648C6.42188 2.26367 6.60938 2.19141 6.80469 2.19141L8.43945 2.1875C8.48047 2.1875 8.51953 2.20313 8.54688 2.23242L9.75195 3.43555H10.625V5.93555ZM11.5625 6.86719C11.3906 6.86719 11.25 6.72656 11.25 6.55469C11.25 6.38281 11.3906 6.24219 11.5625 6.24219C11.7344 6.24219 11.875 6.38281 11.875 6.55469C11.875 6.72852 11.7344 6.86719 11.5625 6.86719Z" fill="#304966"/>
</g>
<defs>
<clipPath id="clip0_588_114">
<rect width="12.5" height="10" fill="white"/>
</clipPath>
</defs>
</svg>
