<svg width="6" height="10" viewBox="0 0 6 10" fill="none" xmlns="http://www.w3.org/2000/svg">
<g clip-path="url(#clip0_588_122)">
<path d="M2.1875 6.19023V9.25059L2.61758 9.89551C2.71035 10.0346 2.91484 10.0346 3.00762 9.89551L3.4375 9.25059V6.19023C3.23457 6.22773 3.02617 6.25 2.8125 6.25C2.59883 6.25 2.39043 6.22773 2.1875 6.19023ZM2.8125 0C1.25918 0 0 1.25918 0 2.8125C0 4.36582 1.25918 5.625 2.8125 5.625C4.36582 5.625 5.625 4.36582 5.625 2.8125C5.625 1.25918 4.36582 0 2.8125 0ZM2.8125 1.48438C2.08008 1.48438 1.48438 2.08008 1.48438 2.8125C1.48438 2.9418 1.3793 3.04688 1.25 3.04688C1.1207 3.04688 1.01562 2.9418 1.01562 2.8125C1.01562 1.82168 1.82187 1.01562 2.8125 1.01562C2.9418 1.01562 3.04688 1.1207 3.04688 1.25C3.04688 1.3793 2.9418 1.48438 2.8125 1.48438Z" fill="#304966"/>
</g>
<defs>
<clipPath id="clip0_588_122">
<rect width="5.625" height="10" fill="white"/>
</clipPath>
</defs>
</svg>
