<svg width="13" height="10" viewBox="0 0 13 10" fill="none" xmlns="http://www.w3.org/2000/svg">
<g clip-path="url(#clip0_588_110)">
<path d="M6.25 2.8125C5.21445 2.8125 4.375 3.7918 4.375 5C4.375 6.20801 5.21445 7.1875 6.25 7.1875C7.28516 7.1875 8.125 6.2084 8.125 5C8.125 3.7918 7.28555 2.8125 6.25 2.8125ZM7.03125 6.09375C7.03125 6.18008 6.96133 6.25 6.875 6.25H5.625C5.53867 6.25 5.46875 6.18008 5.46875 6.09375V5.78125C5.46875 5.69492 5.53867 5.625 5.625 5.625H5.9375V4.54219L5.92832 4.54824C5.91126 4.55963 5.89211 4.56754 5.87199 4.57153C5.85186 4.57551 5.83115 4.57549 5.81103 4.57147C5.79091 4.56744 5.77179 4.55948 5.75475 4.54806C5.73771 4.53663 5.72308 4.52196 5.71172 4.50488L5.53828 4.24492C5.52689 4.22786 5.51898 4.20871 5.51499 4.18859C5.51101 4.16846 5.51103 4.14775 5.51506 4.12763C5.51909 4.10752 5.52704 4.08839 5.53846 4.07135C5.54989 4.05431 5.56456 4.03969 5.58164 4.02832L5.88105 3.82871C5.95804 3.77738 6.04849 3.74999 6.14102 3.75H6.40625C6.49258 3.75 6.5625 3.81992 6.5625 3.90625V5.625H6.875C6.96133 5.625 7.03125 5.69492 7.03125 5.78125V6.09375ZM11.875 1.25H0.625C0.279883 1.25 0 1.52988 0 1.875V8.125C0 8.47012 0.279883 8.75 0.625 8.75H11.875C12.2201 8.75 12.5 8.47012 12.5 8.125V1.875C12.5 1.52988 12.2201 1.25 11.875 1.25ZM11.5625 6.5625C10.8721 6.5625 10.3125 7.12207 10.3125 7.8125H2.1875C2.1875 7.12207 1.62793 6.5625 0.9375 6.5625V3.4375C1.62793 3.4375 2.1875 2.87793 2.1875 2.1875H10.3125C10.3125 2.87793 10.8721 3.4375 11.5625 3.4375V6.5625Z" fill="#304966"/>
</g>
<defs>
<clipPath id="clip0_588_110">
<rect width="12.5" height="10" fill="white"/>
</clipPath>
</defs>
</svg>
