<svg width="166" height="42" viewBox="0 0 166 42" fill="none" xmlns="http://www.w3.org/2000/svg">
<path d="M19.3205 8.21484V2.96484H2.76758V39.0354H19.3205V33.7854C15.9296 33.7854 12.6776 32.4384 10.2799 30.0407C7.88224 27.6429 6.53523 24.391 6.53523 21.0002C6.53523 17.6093 7.88224 14.3572 10.2799 11.9596C12.6776 9.56187 15.9296 8.21484 19.3205 8.21484Z" fill="#181818"/>
<path d="M19.3208 8.21484V33.7854C22.7117 33.7854 25.9637 32.4384 28.3614 30.0407C30.7591 27.6429 32.1061 24.391 32.1061 21.0001C32.1061 17.6093 30.7591 14.3572 28.3614 11.9596C25.9637 9.56187 22.7117 8.21484 19.3208 8.21484Z" fill="#181818"/>
<path d="M41.3955 11.4268H45.1014V29.2768H41.3955V11.4268Z" fill="#181818"/>
<path d="M47.1764 23.1619C47.1764 21.8777 47.5577 20.6224 48.2719 19.5551C48.9862 18.4878 50.0012 17.6566 51.1885 17.1668C52.3757 16.6771 53.6815 16.5509 54.9406 16.8041C56.1996 17.0573 57.3551 17.6787 58.2605 18.5893C59.166 19.5001 59.7808 20.6591 60.0269 21.9196C60.2728 23.1801 60.1392 24.4852 59.6426 25.6696C59.146 26.8538 58.3091 27.8642 57.2377 28.5723C56.1663 29.2804 54.9088 29.6545 53.6246 29.6472C52.7729 29.6539 51.9283 29.4904 51.1405 29.1663C50.3528 28.8423 49.6376 28.3642 49.037 27.7603C48.4364 27.1562 47.9625 26.4383 47.6429 25.6487C47.3235 24.8591 47.1649 24.0136 47.1764 23.1619ZM56.4658 23.1619C56.4512 22.6083 56.2737 22.0711 55.9555 21.6179C55.6373 21.1646 55.1926 20.8151 54.6767 20.6133C54.161 20.4114 53.5972 20.3661 53.0559 20.4831C52.5144 20.5999 52.0196 20.8738 51.6331 21.2706C51.2465 21.6672 50.9855 22.169 50.8827 22.7133C50.78 23.2575 50.8399 23.82 51.0551 24.3303C51.2703 24.8406 51.6311 25.2762 52.0926 25.5825C52.554 25.8888 53.0954 26.0523 53.6493 26.0525C54.0264 26.0599 54.401 25.9894 54.7496 25.8453C55.0982 25.7014 55.4133 25.4871 55.6753 25.2158C55.9373 24.9446 56.1405 24.622 56.2723 24.2687C56.4041 23.9153 56.4616 23.5386 56.4411 23.1619H56.4658Z" fill="#181818"/>
<path d="M74.7359 17.0471V28.6713C74.7359 32.7724 71.5241 34.5142 68.2753 34.5142C67.1293 34.6082 65.9799 34.3805 64.9565 33.8568C63.9329 33.333 63.0758 32.5339 62.4818 31.5495L65.6071 29.746C65.8603 30.2566 66.2631 30.6779 66.762 30.9537C67.2608 31.2295 67.8317 31.3469 68.3988 31.2901C68.7602 31.3345 69.1268 31.2987 69.4726 31.1851C69.8184 31.0713 70.1348 30.8827 70.3992 30.6324C70.6636 30.3821 70.8694 30.0766 71.002 29.7376C71.1345 29.3986 71.1905 29.0344 71.1659 28.6713V27.5471C70.7347 28.07 70.1874 28.4851 69.5678 28.7596C68.9481 29.0341 68.273 29.1603 67.5959 29.1283C65.9578 29.1283 64.3869 28.4776 63.2285 27.3192C62.0702 26.161 61.4194 24.59 61.4194 22.9518C61.4194 21.3137 62.0702 19.7428 63.2285 18.5845C64.3869 17.4261 65.9578 16.7754 67.5959 16.7754C68.273 16.7434 68.9481 16.8696 69.5678 17.1441C70.1874 17.4186 70.7347 17.8336 71.1659 18.3565V17.1213L74.7359 17.0471ZM71.1659 22.9148C71.1905 22.3238 71.0378 21.7389 70.7274 21.2354C70.4169 20.7319 69.9631 20.3328 69.4239 20.0893C68.8848 19.8458 68.2853 19.7692 67.7023 19.8693C67.1193 19.9693 66.5795 20.2415 66.1525 20.6507C65.7254 21.06 65.4306 21.5877 65.3058 22.1659C65.181 22.7442 65.232 23.3464 65.4523 23.8954C65.6727 24.4443 66.0522 24.9148 66.542 25.2464C67.0319 25.578 67.6097 25.7555 68.2012 25.756C68.5872 25.7838 68.9747 25.7303 69.3387 25.5991C69.7027 25.4678 70.0352 25.2616 70.3145 24.9938C70.594 24.7261 70.8141 24.4027 70.9607 24.0446C71.1074 23.6865 71.1773 23.3016 71.1659 22.9148Z" fill="#181818"/>
<path d="M76.8237 23.1621C76.8237 21.8789 77.2044 20.6245 77.9175 19.5577C78.6307 18.4909 79.6442 17.6597 80.83 17.1693C82.0157 16.6788 83.3203 16.551 84.5787 16.8023C85.8371 17.0535 86.9926 17.6724 87.8992 18.5806C88.8056 19.4889 89.4223 20.6457 89.6711 21.9044C89.92 23.1633 89.7898 24.4677 89.2971 25.6524C88.8043 26.8373 87.9711 27.8493 86.9031 28.5604C85.8349 29.2716 84.5798 29.6498 83.2966 29.6474C82.4433 29.6556 81.5967 29.4935 80.8069 29.1703C80.017 28.8471 79.2996 28.3696 78.6967 27.7655C78.0938 27.1615 77.6176 26.4431 77.2959 25.6527C76.9744 24.8622 76.8138 24.0154 76.8237 23.1621ZM86.1131 23.1621C86.0985 22.6079 85.9206 22.0703 85.6019 21.6167C85.2832 21.1632 84.8376 20.8138 84.3212 20.6123C83.8047 20.4108 83.2403 20.3662 82.6986 20.4842C82.1569 20.6021 81.6621 20.8773 81.276 21.2752C80.89 21.6731 80.63 22.1761 80.5287 22.7211C80.4273 23.2661 80.4889 23.8289 80.706 24.3389C80.923 24.8491 81.2858 25.2838 81.7489 25.5887C82.2119 25.8934 82.7546 26.0549 83.309 26.0527C83.6861 26.0601 84.0606 25.9895 84.4092 25.8455C84.7578 25.7016 85.073 25.4873 85.335 25.216C85.597 24.9447 85.8002 24.6222 85.932 24.2689C86.0638 23.9155 86.1212 23.5387 86.1007 23.1621H86.1131Z" fill="#181818"/>
<path d="M91.4868 13.774C91.4868 13.3392 91.6158 12.914 91.8574 12.5524C92.099 12.1908 92.4424 11.909 92.8442 11.7426C93.246 11.5761 93.6881 11.5326 94.1147 11.6174C94.5411 11.7023 94.9329 11.9117 95.2405 12.2192C95.548 12.5267 95.7573 12.9186 95.8422 13.345C95.9271 13.7716 95.8835 14.2137 95.7171 14.6155C95.5507 15.0172 95.2688 15.3606 94.9072 15.6023C94.5456 15.8439 94.1206 15.9728 93.6856 15.9728C93.1044 15.9664 92.5489 15.7327 92.1379 15.3217C91.727 14.9107 91.4932 14.3552 91.4868 13.774ZM91.8451 17.0476H95.5509V29.277H91.8451V17.0476Z" fill="#181818"/>
<path d="M111.412 23.1616C111.454 23.975 111.334 24.7885 111.06 25.5554C110.786 26.3223 110.363 27.0274 109.815 27.6301C109.267 28.2329 108.606 28.7213 107.869 29.0675C107.132 29.4136 106.333 29.6105 105.52 29.6469C104.829 29.6929 104.137 29.5823 103.496 29.3235C102.854 29.0646 102.279 28.6643 101.814 28.1522V34.1928H98.1079V17.0469H101.814V18.1958C102.28 17.6852 102.855 17.2867 103.497 17.03C104.139 16.7732 104.83 16.665 105.52 16.7134C106.33 16.7498 107.125 16.9456 107.86 17.2894C108.594 17.6332 109.254 18.1184 109.801 18.7172C110.349 19.3159 110.772 20.0166 111.049 20.7793C111.325 21.5418 111.449 22.3513 111.412 23.1616ZM107.706 23.1616C107.692 22.5878 107.508 22.0312 107.178 21.5614C106.849 21.0917 106.388 20.7295 105.853 20.5206C105.319 20.3116 104.734 20.2651 104.173 20.3868C103.613 20.5085 103.1 20.7931 102.7 21.2048C102.3 21.6165 102.031 22.1371 101.926 22.7014C101.821 23.2655 101.884 23.8482 102.109 24.3764C102.333 24.9045 102.709 25.3547 103.188 25.6704C103.667 25.9861 104.229 26.1533 104.803 26.1511C105.196 26.1677 105.588 26.1011 105.954 25.9556C106.32 25.8101 106.65 25.589 106.924 25.3067C107.199 25.0245 107.41 24.6874 107.545 24.3178C107.679 23.948 107.734 23.5541 107.706 23.1616Z" fill="#181818"/>
<path d="M122.69 25.6075C122.69 28.424 120.22 29.6222 117.601 29.6222C116.533 29.7183 115.46 29.4919 114.522 28.9722C113.584 28.4525 112.823 27.6634 112.338 26.7069L115.525 24.9034C115.652 25.3441 115.925 25.7282 116.301 25.9913C116.676 26.2544 117.131 26.3806 117.588 26.3487C118.465 26.3487 118.91 26.0769 118.91 25.5828C118.91 24.2363 112.894 24.9528 112.894 20.7157C112.894 18.0475 115.142 16.7134 117.687 16.7134C118.654 16.67 119.615 16.8895 120.468 17.3484C121.321 17.8074 122.033 18.4886 122.53 19.3199L119.342 20.9999C119.202 20.6811 118.972 20.4101 118.68 20.2194C118.388 20.0287 118.048 19.9265 117.7 19.9251C117.057 19.9251 116.674 20.1722 116.674 20.6046C116.674 22.0128 122.69 21.0863 122.69 25.6075Z" fill="#181818"/>
<path d="M136.118 17.0469V29.2763H132.412V28.1275C131.99 28.636 131.456 29.0384 130.852 29.3024C130.246 29.5663 129.588 29.6843 128.928 29.6469C126.458 29.6469 124.345 27.8804 124.345 24.5822V17.0469H128.051V24.0263C128.021 24.3181 128.056 24.6127 128.152 24.8899C128.249 25.167 128.403 25.4199 128.606 25.6314C128.81 25.8428 129.057 26.0076 129.33 26.1144C129.603 26.2212 129.895 26.2674 130.188 26.2498C131.522 26.2498 132.461 25.4592 132.461 23.7792V17.0469H136.118Z" fill="#181818"/>
<path d="M157.118 21.7661V29.2767H153.412V22.0873C153.412 20.852 152.831 20.0861 151.658 20.0861C150.484 20.0861 149.743 20.9385 149.743 22.3837V29.2767H146.037V22.0873C146.037 20.852 145.457 20.0861 144.283 20.0861C143.11 20.0861 142.368 20.9385 142.368 22.3837V29.2767H138.663V17.0473H142.368V18.1714C142.753 17.6748 143.253 17.2815 143.827 17.027C144.401 16.7725 145.029 16.6648 145.654 16.7137C146.281 16.681 146.906 16.812 147.467 17.0935C148.027 17.375 148.505 17.7976 148.854 18.3196C149.261 17.7741 149.8 17.3408 150.42 17.06C151.039 16.7791 151.721 16.66 152.399 16.7137C155.29 16.7137 157.118 18.7149 157.118 21.7661Z" fill="#181818"/>
<path d="M160.231 16.9734C161.732 16.9734 162.948 15.7566 162.948 14.2557C162.948 12.7549 161.732 11.5381 160.231 11.5381C158.73 11.5381 157.513 12.7549 157.513 14.2557C157.513 15.7566 158.73 16.9734 160.231 16.9734Z" fill="#181818"/>
</svg>
