<svg width="10" height="10" viewBox="0 0 10 10" fill="none" xmlns="http://www.w3.org/2000/svg">
<g clip-path="url(#clip0_588_118)">
<path d="M5 1.09375C7.15883 1.09375 8.90625 2.84084 8.90625 5C8.90625 7.15883 7.15916 8.90625 5 8.90625C2.84117 8.90625 1.09375 7.15916 1.09375 5C1.09375 2.84117 2.84084 1.09375 5 1.09375ZM5 0.15625C2.32486 0.15625 0.15625 2.32486 0.15625 5C0.15625 7.67514 2.32486 9.84375 5 9.84375C7.67514 9.84375 9.84375 7.67514 9.84375 5C9.84375 2.32486 7.67514 0.15625 5 0.15625ZM5 3.4375C4.13705 3.4375 3.4375 4.13705 3.4375 5C3.4375 5.86295 4.13705 6.5625 5 6.5625C5.86295 6.5625 6.5625 5.86295 6.5625 5C6.5625 4.13705 5.86295 3.4375 5 3.4375Z" fill="#304966"/>
</g>
<defs>
<clipPath id="clip0_588_118">
<rect width="10" height="10" fill="white"/>
</clipPath>
</defs>
</svg>
